<svg width="800" height="800" viewBox="0 0 800 800" fill="none" xmlns="http://www.w3.org/2000/svg">
<g clip-path="url(#clip0_11_2)">
<path d="M375 749.999H50.0006V50.0007H375C388.8 50.0007 399.999 38.7998 399.999 25.0014C399.999 11.2029 388.798 0.00210571 375 0.00210571H24.9993C11.2008 0.00210571 0 11.2009 0 25.0014V774.999C0 788.799 11.2008 799.998 24.9993 799.998H374.998C388.798 799.998 399.997 788.797 399.997 774.999C399.999 761.198 388.798 749.999 375 749.999Z" fill="white"/>
<path d="M792.747 382.549L620.248 207.575C610.473 197.7 594.648 197.725 584.898 207.575C575.123 217.425 575.123 233.424 584.898 243.274L714.899 375.149H200.075C186.275 375.149 175.076 386.45 175.076 400.4C175.076 414.35 186.277 425.651 200.075 425.651H714.899L584.898 557.526C575.123 567.401 575.123 583.375 584.898 593.225C594.673 603.1 610.498 603.1 620.248 593.225L792.723 418.251C802.373 408.525 802.473 392.25 792.747 382.549Z" fill="white"/>
</g>
<defs>
<clipPath id="clip0_11_2">
<rect width="800" height="800" fill="white"/>
</clipPath>
</defs>
</svg>
