<svg width="40" height="40" viewBox="0 0 40 40" fill="none" xmlns="http://www.w3.org/2000/svg">
<g clip-path="url(#clip0_25_9)">
<path d="M35 6.66667H30V5C30 2.24333 27.7567 0 25 0H5C2.24333 0 0 2.24333 0 5V29.7567C0 31.08 0.725 32.29 1.89 32.9133C2.42 33.1983 3.00167 33.3383 3.58167 33.3383C4.275 33.3383 4.96667 33.1367 5.565 32.7383L10 29.7817V35H27.8283L34.435 39.405C35.035 39.805 35.725 40.0067 36.4183 40.0067C36.9983 40.0067 37.5783 39.865 38.11 39.58C39.2767 38.9567 40 37.7467 40 36.4233V11.6667C40 8.91 37.7567 6.66667 35 6.66667ZM3.71667 29.965C3.685 29.985 3.59167 30.045 3.46333 29.9767C3.33167 29.9067 3.33167 29.795 3.33167 29.7583V5C3.33167 4.08 4.08 3.33333 4.99833 3.33333H24.9983C25.9167 3.33333 26.665 4.08 26.665 5V25H11.1617L3.71667 29.965ZM36.6667 36.425C36.6667 36.46 36.6667 36.5733 36.535 36.6433C36.4033 36.7117 36.3133 36.6517 36.2833 36.6317L28.8383 31.6667H13.3333V28.3333H30V10H35C35.9183 10 36.6667 10.7467 36.6667 11.6667V36.425Z" fill="white"/>
</g>
<defs>
<clipPath id="clip0_25_9">
<rect width="40" height="40" fill="white"/>
</clipPath>
</defs>
</svg>
