<svg width="18" height="18" viewBox="0 0 18 18" fill="none" xmlns="http://www.w3.org/2000/svg">
<path id="Vector" d="M6.7155 9.40125V14.25H5.9655V8.652L6.7155 9.402V9.40125ZM13.0905 17.25H4.8405C4.22025 17.25 3.7155 16.7453 3.7155 16.125V6.402L2.9655 5.652V16.125C2.9655 17.1593 3.80625 18 4.8405 18H13.0905C13.6965 18 14.2305 17.7067 14.5732 17.259L14.0385 16.7243C13.839 17.0392 13.4895 17.25 13.0905 17.25ZM8.5905 11.2762V14.25H9.3405V12.0262L8.5905 11.2762ZM17.931 17.4345L17.4007 17.9647L0 0.5655L0.53025 0.03525L3.495 3H5.21475V1.875C5.21475 0.84075 6.05625 0 7.08975 0H10.8397C11.8732 0 12.7147 0.84075 12.7147 1.875V3H16.4648V3.75H14.9647V14.4697L17.9302 17.4345H17.931ZM5.9655 3H11.9655V1.875C11.9655 1.25475 11.4607 0.75 10.8405 0.75H7.0905C6.47025 0.75 5.9655 1.25475 5.9655 1.875V3ZM4.24575 3.75L8.5905 8.09475V6.75H9.3405V8.84475L11.2155 10.7198V6.75H11.9655V11.4698L14.2155 13.7197V3.75H4.24575Z" fill="#F77171"/>
</svg>
