<svg width="45" height="45" viewBox="0 0 45 45" fill="none" xmlns="http://www.w3.org/2000/svg">
<g clip-path="url(#clip0_25_25)">
<path d="M22.5 28.111C19.3934 28.111 16.875 30.6294 16.875 33.736V44.986H28.125V33.736C28.125 30.6294 25.6066 28.111 22.5 28.111Z" fill="white"/>
<path d="M31.875 33.736V44.986H39.375C42.4816 44.986 45 42.4676 45 39.361V22.2592C45.0004 21.2851 44.6219 20.349 43.9443 19.6492L28.0107 2.42349C25.1992 -0.618405 20.4542 -0.805173 17.4123 2.00627C17.2678 2.13987 17.1286 2.279 16.9951 2.42349L1.0894 19.6435C0.391377 20.3463 -0.000263539 21.2968 1.33051e-07 22.2873V39.361C1.33051e-07 42.4676 2.51842 44.986 5.625 44.986H13.125V33.736C13.16 28.6232 17.288 24.4481 22.272 24.3279C27.4228 24.2036 31.8357 28.4498 31.875 33.736Z" fill="white"/>
<path d="M22.5 28.111C19.3934 28.111 16.875 30.6294 16.875 33.736V44.986H28.125V33.736C28.125 30.6294 25.6066 28.111 22.5 28.111Z" fill="white"/>
</g>
<defs>
<clipPath id="clip0_25_25">
<rect width="45" height="45" fill="white"/>
</clipPath>
</defs>
</svg>
