<svg width="45" height="45" viewBox="0 0 45 45" fill="none" xmlns="http://www.w3.org/2000/svg">
<g clip-path="url(#clip0_25_31)">
<path d="M22.5 0.0787506C17.5387 0.0842089 12.782 2.05739 9.27365 5.56543C5.76526 9.07347 3.7916 13.8299 3.78564 18.7913C3.78564 23.61 7.51689 31.1513 14.8763 41.205C15.7524 42.4052 16.8995 43.3817 18.2243 44.0548C19.549 44.728 21.014 45.0788 22.5 45.0788C23.986 45.0788 25.451 44.728 26.7758 44.0548C28.1005 43.3817 29.2477 42.4052 30.1238 41.205C37.4831 31.1513 41.2144 23.61 41.2144 18.7913C41.2084 13.8299 39.2348 9.07347 35.7264 5.56543C32.218 2.05739 27.4614 0.0842089 22.5 0.0787506ZM22.5 26.25C21.0167 26.25 19.5666 25.8101 18.3332 24.986C17.0999 24.1619 16.1386 22.9906 15.5709 21.6201C15.0033 20.2497 14.8547 18.7417 15.1441 17.2868C15.4335 15.832 16.1478 14.4956 17.1967 13.4467C18.2456 12.3978 19.582 11.6835 21.0368 11.3941C22.4917 11.1047 23.9997 11.2532 25.3701 11.8209C26.7406 12.3886 27.9119 13.3499 28.736 14.5832C29.5602 15.8166 30 17.2666 30 18.75C30 20.7391 29.2098 22.6468 27.8033 24.0533C26.3968 25.4598 24.4891 26.25 22.5 26.25Z" fill="white"/>
</g>
<defs>
<clipPath id="clip0_25_31">
<rect width="45" height="45" fill="white"/>
</clipPath>
</defs>
</svg>
