<svg width="60" height="60" viewBox="0 0 60 60" fill="none" xmlns="http://www.w3.org/2000/svg">
<path id="Vector" d="M7.88441 35.0016C6.52837 35.0016 5.19739 34.4991 4.00176 33.5292C1.86117 31.7943 0.392329 28.7195 0.066477 25.2997C-0.462405 19.745 2.20707 15.5278 6.55594 15.0403C8.32807 14.8479 10.0852 15.3653 11.4989 16.5103C13.3913 18.0452 14.597 20.5925 14.8927 23.6873C15.4542 29.5494 12.6469 34.5041 8.50102 34.9666C8.29548 34.9891 8.09245 35.0016 7.88942 35.0016H7.88441ZM7.30289 17.5027C7.14748 17.5027 6.98957 17.5102 6.83417 17.5302C3.92657 17.8527 2.16947 20.9525 2.5605 25.0672C2.82368 27.832 3.95414 30.2719 5.5834 31.5918C6.16993 32.0693 7.09735 32.6117 8.21778 32.4842C10.8973 32.1868 12.8098 28.267 12.3962 23.9273C12.1656 21.5049 11.2858 19.5626 9.91722 18.4551C9.1427 17.8302 8.24786 17.5027 7.30289 17.5027ZM52.11 35.0016C51.907 35.0016 51.7014 34.9891 51.4984 34.9666C47.3551 34.5041 44.5477 29.5494 45.1067 23.6873C45.4025 20.595 46.6056 18.0452 48.5006 16.5103C49.9118 15.3653 51.6764 14.8479 53.4435 15.0403C57.7949 15.5253 60.4643 19.745 59.9329 25.2997C59.6071 28.717 58.1357 31.7943 55.9977 33.5292C54.7995 34.4991 53.4685 35.0016 52.115 35.0016H52.11ZM52.6915 17.5027C51.7465 17.5027 50.8517 17.8277 50.0772 18.4526C48.7111 19.5601 47.8313 21.5049 47.5982 23.9248C47.1846 28.2645 49.0971 32.1843 51.7766 32.4817C52.8895 32.6067 53.8245 32.0643 54.411 31.5893C56.0403 30.2694 57.1707 27.832 57.4339 25.0647C57.8274 20.95 56.0703 17.8527 53.1602 17.5277C53.0048 17.5102 52.8469 17.5027 52.6915 17.5027ZM39.5121 20.0025C39.3166 20.0025 39.1236 19.9925 38.928 19.9725C36.8451 19.7575 35.0429 18.4001 33.8548 16.1528C32.7544 14.0704 32.3032 11.4306 32.5865 8.72324C33.1705 3.15359 36.6696 -0.421179 41.016 0.0412919C43.109 0.258778 44.9137 1.40371 46.0943 3.26609C47.2749 5.12847 47.7511 7.55082 47.4629 10.2731C46.8763 15.8703 43.4423 20.005 39.5146 20.005L39.5121 20.0025ZM40.3041 2.50364C37.6046 2.50364 35.4866 5.09097 35.078 8.98323C34.8449 11.2056 35.1983 13.338 36.0706 14.9853C36.8551 16.4703 37.963 17.3577 39.1862 17.4852C41.8858 17.7402 44.5151 14.3404 44.9688 10.0082C45.1944 7.8533 44.851 5.98342 43.9737 4.5985C43.1992 3.38108 42.0888 2.66363 40.7553 2.52363C40.6024 2.50864 40.4545 2.50114 40.3067 2.50114L40.3041 2.50364ZM20.4798 20.0025C16.5496 20.0025 13.1181 15.8703 12.5316 10.2706C12.2458 7.55082 12.7195 5.12597 13.9001 3.26359C15.0832 1.40371 16.8879 0.258778 18.9784 0.0412919C23.3649 -0.428678 26.8239 3.15359 27.4054 8.72074C27.6887 11.4306 27.24 14.0704 26.1371 16.1528C24.949 18.4001 23.1468 19.755 21.0639 19.9725C20.8683 19.9925 20.6728 20.0025 20.4798 20.0025ZM19.6878 2.50364C19.5399 2.50364 19.3895 2.51114 19.2391 2.52613C17.9056 2.66613 16.7927 3.38358 16.0207 4.601C15.1434 5.98342 14.8 7.8533 15.0256 10.0107C15.4793 14.3429 18.1362 17.7427 20.8082 17.4877C22.0314 17.3602 23.1393 16.4728 23.9238 14.9878C24.7961 13.338 25.1495 11.2056 24.9164 8.98323C24.5079 5.09347 22.3898 2.50614 19.6903 2.50614L19.6878 2.50364ZM43.7832 60C41.9434 60 40.0836 59.4725 38.1159 58.9151C35.7773 58.2526 33.1279 57.5002 29.9972 57.5002C26.8665 57.5002 24.2146 58.2526 21.8785 58.9151C19.9108 59.4725 18.0535 60 16.2112 60C11.9851 60 7.43824 57.2627 7.43824 51.2506C7.43824 39.4813 19.778 30.0019 29.9972 30.0019C40.2164 30.0019 52.5562 39.4813 52.5562 51.2506C52.5562 57.2627 48.0093 60 43.7832 60ZM29.9972 55.0003C33.4788 55.0003 36.3087 55.8028 38.8027 56.5102C40.6751 57.0402 42.2943 57.5002 43.7832 57.5002C46.6733 57.5002 50.0496 55.8628 50.0496 51.2506C50.0496 41.1537 39.0233 32.5017 29.9972 32.5017C20.9711 32.5017 9.94479 41.1537 9.94479 51.2506C9.94479 55.8628 13.3211 57.5002 16.2112 57.5002C17.7026 57.5002 19.3193 57.0402 21.1917 56.5102C23.6857 55.8028 26.5156 55.0003 29.9972 55.0003Z" fill="#919191"/>
</svg>
