<svg width="40" height="40" viewBox="0 0 40 40" fill="none" xmlns="http://www.w3.org/2000/svg">
<g clip-path="url(#clip0_25_11)">
<path d="M6.66667 18.3333H18.3333V6.66667H6.66667V18.3333ZM10 10H15V15H10V10ZM33.3333 6.66667H21.6667V18.3333H33.3333V6.66667ZM30 15H25V10H30V15ZM6.66667 33.3333H18.3333V21.6667H6.66667V33.3333ZM10 25H15V30H10V25ZM5 36.6667H11.6667V40H5C2.24333 40 0 37.7567 0 35V28.3333H3.33333V35C3.33333 35.9183 4.08167 36.6667 5 36.6667ZM36.6667 28.3333H40V35C40 37.7567 37.7567 40 35 40H28.3333V36.6667H35C35.9183 36.6667 36.6667 35.9183 36.6667 35V28.3333ZM40 5V11.6667H36.6667V5C36.6667 4.08167 35.9183 3.33333 35 3.33333H28.3333V0H35C37.7567 0 40 2.24333 40 5ZM3.33333 11.6667H0V5C0 2.24333 2.24333 0 5 0H11.6667V3.33333H5C4.08167 3.33333 3.33333 4.08167 3.33333 5V11.6667ZM21.6667 28.3333H26.6667V33.3333H21.6667V28.3333ZM28.3333 26.6667V21.6667H33.3333V26.6667H28.3333ZM21.6667 21.6667H26.6667V26.6667H21.6667V21.6667Z" fill="white"/>
</g>
<defs>
<clipPath id="clip0_25_11">
<rect width="40" height="40" fill="white"/>
</clipPath>
</defs>
</svg>
