<svg width="45" height="45" viewBox="0 0 45 45" fill="none" xmlns="http://www.w3.org/2000/svg">
<g clip-path="url(#clip0_25_17)">
<path d="M7.5 20.625H20.625V7.5H7.5V20.625ZM37.5 7.5H24.375V20.625H37.5V7.5ZM7.5 37.5H20.625V24.375H7.5V37.5ZM5.625 41.25H13.125V45H5.625C2.52375 45 0 42.4763 0 39.375V31.875H3.75V39.375C3.75 40.4081 4.59188 41.25 5.625 41.25ZM41.25 31.875H45V39.375C45 42.4763 42.4763 45 39.375 45H31.875V41.25H39.375C40.4081 41.25 41.25 40.4081 41.25 39.375V31.875ZM45 5.625V13.125H41.25V5.625C41.25 4.59188 40.4081 3.75 39.375 3.75H31.875V0H39.375C42.4763 0 45 2.52375 45 5.625ZM3.75 13.125H0V5.625C0 2.52375 2.52375 0 5.625 0H13.125V3.75H5.625C4.59188 3.75 3.75 4.59188 3.75 5.625V13.125ZM24.375 31.875H30V37.5H24.375V31.875ZM31.875 30V24.375H37.5V30H31.875ZM24.375 24.375H30V30H24.375V24.375Z" fill="white"/>
</g>
<defs>
<clipPath id="clip0_25_17">
<rect width="45" height="45" fill="white"/>
</clipPath>
</defs>
</svg>
