<svg width="40" height="40" viewBox="0 0 40 40" fill="none" xmlns="http://www.w3.org/2000/svg">
<path d="M21.7083 5V1.66667C21.7083 1.22464 21.8839 0.800716 22.1965 0.488155C22.509 0.175595 22.933 0 23.375 0C23.817 0 24.241 0.175595 24.5535 0.488155C24.8661 0.800716 25.0417 1.22464 25.0417 1.66667V5C25.0417 5.44203 24.8661 5.86595 24.5535 6.17851C24.241 6.49107 23.817 6.66667 23.375 6.66667C22.933 6.66667 22.509 6.49107 22.1965 6.17851C21.8839 5.86595 21.7083 5.44203 21.7083 5ZM16.7083 6.66667C17.1504 6.66667 17.5743 6.49107 17.8868 6.17851C18.1994 5.86595 18.375 5.44203 18.375 5V1.66667C18.375 1.22464 18.1994 0.800716 17.8868 0.488155C17.5743 0.175595 17.1504 0 16.7083 0C16.2663 0 15.8424 0.175595 15.5298 0.488155C15.2173 0.800716 15.0417 1.22464 15.0417 1.66667V5C15.0417 5.44203 15.2173 5.86595 15.5298 6.17851C15.8424 6.49107 16.2663 6.66667 16.7083 6.66667ZM10.0417 6.66667C10.4837 6.66667 10.9076 6.49107 11.2202 6.17851C11.5327 5.86595 11.7083 5.44203 11.7083 5V1.66667C11.7083 1.22464 11.5327 0.800716 11.2202 0.488155C10.9076 0.175595 10.4837 0 10.0417 0C9.59964 0 9.17572 0.175595 8.86315 0.488155C8.55059 0.800716 8.375 1.22464 8.375 1.66667V5C8.375 5.44203 8.55059 5.86595 8.86315 6.17851C9.17572 6.49107 9.59964 6.66667 10.0417 6.66667ZM40 21.905C39.9453 23.6339 39.218 25.2731 37.9728 26.4737C36.7276 27.6744 35.063 28.3416 33.3333 28.3333H29.2083C28.1469 29.889 26.7184 31.1591 25.0492 32.0312C23.38 32.9033 21.5216 33.3506 19.6383 33.3333H13.6933C11.7783 33.3525 9.88904 32.8915 8.19808 31.9924C6.50713 31.0934 5.0684 29.7849 4.01333 28.1867C1.65333 24.4217 -4.08833 10.6183 5 10H28.3333C29.1282 10.0216 29.9073 10.2263 30.61 10.5983C31.3128 10.9702 31.9202 11.4994 32.385 12.1445C32.8499 12.7896 33.1595 13.5333 33.2899 14.3176C33.4202 15.102 33.3678 15.9059 33.1367 16.6667C37.255 16.6667 40 18.675 40 21.905ZM36.6667 21.905C36.8133 20.36 34.5833 19.865 32.57 20C32.1975 21.7127 31.6651 23.3867 30.98 25H33.3333C34.1794 25.0086 34.9966 24.6924 35.6167 24.1167C36.2368 23.541 36.6125 22.7494 36.6667 21.905ZM31.6667 36.6667H1.66667C1.22464 36.6667 0.800716 36.8423 0.488155 37.1548C0.175595 37.4674 0 37.8913 0 38.3333C0 38.7754 0.175595 39.1993 0.488155 39.5118C0.800716 39.8244 1.22464 40 1.66667 40H31.6667C32.1087 40 32.5326 39.8244 32.8452 39.5118C33.1577 39.1993 33.3333 38.7754 33.3333 38.3333C33.3333 37.8913 33.1577 37.4674 32.8452 37.1548C32.5326 36.8423 32.1087 36.6667 31.6667 36.6667Z" fill="#2D6F28"/>
</svg>
