<svg width="40" height="40" viewBox="0 0 40 40" fill="none" xmlns="http://www.w3.org/2000/svg">
<path d="M28 28.3333C28 28.7754 27.7893 29.1993 27.4142 29.5118C27.0391 29.8244 26.5304 30 26 30H14C13.4696 30 12.9609 29.8244 12.5858 29.5118C12.2107 29.1993 12 28.7754 12 28.3333C12 27.8913 12.2107 27.4674 12.5858 27.1548C12.9609 26.8423 13.4696 26.6667 14 26.6667H26C26.5304 26.6667 27.0391 26.8423 27.4142 27.1548C27.7893 27.4674 28 27.8913 28 28.3333ZM40 28.3333V30C39.9968 32.6514 38.7315 35.1934 36.4818 37.0681C34.232 38.9429 31.1816 39.9974 28 40H12C8.81838 39.9974 5.76798 38.9429 3.51824 37.0681C1.26849 35.1934 0.00318707 32.6514 1.0214e-05 30V28.3333C-0.00353617 25.5677 0.916483 22.8557 2.65713 20.5009C4.39777 18.1462 6.89036 16.2415 9.85601 15H30.144C33.1096 16.2415 35.6022 18.1462 37.3429 20.5009C39.0835 22.8557 40.0035 25.5677 40 28.3333ZM32 28.3333C32 27.0073 31.3679 25.7355 30.2426 24.7978C29.1174 23.8601 27.5913 23.3333 26 23.3333H14C12.4087 23.3333 10.8826 23.8601 9.75737 24.7978C8.63215 25.7355 8.00001 27.0073 8.00001 28.3333C8.00001 29.6594 8.63215 30.9312 9.75737 31.8689C10.8826 32.8065 12.4087 33.3333 14 33.3333H26C27.5913 33.3333 29.1174 32.8065 30.2426 31.8689C31.3679 30.9312 32 29.6594 32 28.3333ZM30 10C30 9.11594 29.5786 8.2681 28.8284 7.64298C28.0783 7.01786 27.0609 6.66667 26 6.66667V3.33333H34C34.5304 3.33333 35.0391 3.15774 35.4142 2.84518C35.7893 2.53262 36 2.10869 36 1.66667C36 1.22464 35.7893 0.800716 35.4142 0.488155C35.0391 0.175595 34.5304 0 34 0L20 0C18.4087 0 16.8826 0.526784 15.7574 1.46447C14.6321 2.40215 14 3.67392 14 5V6.66667C12.9391 6.66667 11.9217 7.01786 11.1716 7.64298C10.4214 8.2681 10 9.11594 10 10V11.6667H30V10Z" fill="#2D6F28"/>
</svg>
