<svg width="40" height="40" viewBox="0 0 40 40" fill="none" xmlns="http://www.w3.org/2000/svg">
<path d="M39.9368 12.875L37.9834 6.04333C36.9668 2.485 33.6701 0 29.9701 0H28.3334V6.66667C28.3234 8.84667 25.0084 8.845 25.0001 6.66667V0H15.0001V6.66667C14.9901 8.84667 11.6768 8.845 11.6668 6.66667V0H10.0284C6.32842 0 3.03342 2.485 2.01508 6.04333L0.0650845 12.875C-0.203249 14.6517 0.588418 16.4383 1.66675 17.6967V33.3333C1.66675 37.01 4.65675 40 8.33342 40H18.3334C22.0101 40 25.0001 37.01 25.0001 33.3333V19.0733C25.6301 18.705 26.1901 18.2433 26.6668 17.6967C27.8901 19.0967 29.6651 20 31.6668 20H33.3334C33.9118 20 34.4634 19.9033 35.0001 19.7633V38.3333C35.0101 40.5133 38.3251 40.5117 38.3334 38.3333V17.6967C39.4134 16.44 40.2034 14.6533 39.9368 12.875ZM21.6668 28.3333H5.00008V19.7633C5.53675 19.9033 6.08842 20 6.66675 20H8.33342C10.3334 20 12.1101 19.0967 13.3334 17.6967C14.5568 19.0967 16.3334 20 18.3334 20H21.6668V28.3333Z" fill="#2D6F28"/>
</svg>
