<svg width="50" height="50" viewBox="0 0 50 50" fill="none" xmlns="http://www.w3.org/2000/svg">
<g clip-path="url(#clip0_141_2)">
<path d="M25 50C22.7899 50 20.6702 49.122 19.1074 47.5592C17.5446 45.9964 16.6667 43.8768 16.6667 41.6667V33.3333H8.33333C6.1232 33.3333 4.00358 32.4554 2.44078 30.8926C0.877974 29.3298 0 27.2101 0 25C0 22.7899 0.877974 20.6702 2.44078 19.1074C4.00358 17.5446 6.1232 16.6667 8.33333 16.6667H16.6667V8.33333C16.6667 6.1232 17.5446 4.00358 19.1074 2.44078C20.6702 0.877974 22.7899 0 25 0C27.2101 0 29.3298 0.877974 30.8926 2.44078C32.4554 4.00358 33.3333 6.1232 33.3333 8.33333V16.6667H41.6667C43.8768 16.6667 45.9964 17.5446 47.5592 19.1074C49.122 20.6702 50 22.7899 50 25C50 27.2101 49.122 29.3298 47.5592 30.8926C45.9964 32.4554 43.8768 33.3333 41.6667 33.3333H33.3333V41.6667C33.3333 43.8768 32.4554 45.9964 30.8926 47.5592C29.3298 49.122 27.2101 50 25 50Z" fill="#2D6F28"/>
</g>
<defs>
<clipPath id="clip0_141_2">
<rect width="50" height="50" fill="white"/>
</clipPath>
</defs>
</svg>
