<svg width="50" height="50" viewBox="0 0 50 50" fill="none" xmlns="http://www.w3.org/2000/svg">
<path d="M49.9834 25.3333C49.9338 28.9801 49.0802 32.571 47.4834 35.85C47.33 35.8484 47.1769 35.8645 47.0272 35.8979C43.2401 37.0114 39.3076 37.5514 35.3605 37.5C31.1115 37.6189 26.871 37.0562 22.8001 35.8333C22.316 35.6692 21.8804 35.3872 21.5326 35.0127C21.1847 34.6381 20.9356 34.1829 20.8077 33.688C20.6797 33.1932 20.677 32.6743 20.7997 32.1781C20.9224 31.6819 21.1667 31.224 21.5105 30.8458C22.212 30.0653 22.9621 29.3298 23.7563 28.6438C24.1662 28.3139 24.6544 28.0958 25.1736 28.0107C25.6928 27.9257 26.2252 27.9765 26.7188 28.1583C29.3823 29.0469 32.1714 29.5013 34.9792 29.5042C40.2593 29.4498 45.4328 28.0117 49.9834 25.3333ZM31.7667 25.05C32.2389 25.1266 32.7225 25.0929 33.1795 24.9515C33.6365 24.8101 34.0546 24.5649 34.401 24.235C34.7474 23.9051 35.0128 23.4995 35.1764 23.05C35.34 22.6004 35.3973 22.1191 35.3438 21.6438C34.3793 13.7701 30.8172 6.44282 25.2209 0.820846C25.0081 0.590168 24.8513 0.313575 24.7626 0.0125122C21.4669 0.0366709 18.209 0.717283 15.1792 2.0146C18.3415 4.37393 20.9888 7.35397 22.9591 10.7722C24.9293 14.1904 26.181 17.9749 26.6376 21.8938C26.7234 22.4968 26.9856 23.0609 27.3911 23.5154C27.7966 23.9698 28.3274 24.2942 28.9167 24.4479C29.8524 24.7112 30.8045 24.9123 31.7667 25.05ZM43.5876 23.7104C45.7048 22.9334 47.7218 21.9067 49.5959 20.6521C48.7366 15.8256 46.4792 11.3576 43.1039 7.80231C39.7286 4.24699 35.3838 1.76079 30.6084 0.652096C35.4786 6.50674 38.5565 13.642 39.473 21.2021C39.5291 21.6624 39.6887 22.1039 39.9398 22.4937C40.1908 22.8835 40.527 23.2113 40.9228 23.4527C41.3187 23.694 41.7641 23.8426 42.2256 23.8872C42.6872 23.9319 43.1528 23.8714 43.5876 23.7104ZM35.0001 41.6667C29.8686 41.7518 24.7623 40.9331 19.9147 39.2479C19.5244 39.1053 19.1088 39.0453 18.6942 39.0717C18.2795 39.0981 17.8749 39.2103 17.5059 39.4013C17.1369 39.5922 16.8116 39.8577 16.5506 40.181C16.2896 40.5043 16.0986 40.8782 15.9897 41.2792C15.4316 43.4778 15.1799 45.7429 15.2417 48.0104C20.1992 50.1177 25.7052 50.5652 30.9379 49.2859C36.1705 48.0067 40.8491 45.0694 44.2751 40.9125C41.2189 41.4918 38.1097 41.7446 35.0001 41.6667ZM22.5001 22.5646C22.3678 21.3355 22.1429 20.1181 21.8272 18.9229C21.6907 18.4267 21.4311 17.973 21.0723 17.604C20.7136 17.2349 20.2675 16.9625 19.7753 16.8121C19.2831 16.6616 18.7609 16.6379 18.2572 16.7433C17.7534 16.8486 17.2845 17.0795 16.8938 17.4146C10.888 22.6869 6.60549 29.6426 4.60216 37.3792C4.50036 37.9592 4.43565 38.5451 4.40841 39.1333C6.19673 41.734 8.45827 43.975 11.0751 45.7396C11.2976 41.7923 12.3252 37.9322 14.0947 34.3968C15.8642 30.8613 18.3383 27.7252 21.3647 25.1813C21.7537 24.8714 22.0606 24.4707 22.2586 24.0145C22.4566 23.5583 22.5395 23.0604 22.5001 22.5646ZM16.1813 8.56043C14.6728 6.90065 12.9434 5.4559 11.0417 4.26668C6.42379 7.35156 2.9713 11.8934 1.23449 17.1684C-0.502318 22.4434 -0.42349 28.1479 1.45841 33.3729C4.15752 25.3103 9.13273 18.2013 15.7834 12.9042C16.1041 12.6517 16.37 12.3364 16.5649 11.9777C16.7597 11.619 16.8794 11.2244 16.9166 10.8179C16.9539 10.4114 16.9079 10.0016 16.7814 9.61344C16.655 9.22531 16.4508 8.86702 16.1813 8.56043Z" fill="#2D6F28"/>
</svg>
