<svg width="512" height="512" viewBox="0 0 512 512" fill="none" xmlns="http://www.w3.org/2000/svg">
<g clip-path="url(#clip0_19_13)">
<path d="M71.2533 419.051L155.797 362.667H384V64C384 28.7147 355.285 0 320 0H64C28.7147 0 0 28.7147 0 64V380.885C0 397.803 9.28 413.291 24.192 421.291C30.976 424.939 38.4213 426.731 45.8453 426.731C54.72 426.731 63.5733 424.149 71.2533 419.051ZM512 149.333V466.219C512 483.136 502.72 498.624 487.808 506.624C481.024 510.272 473.579 512.064 466.155 512.085C457.28 512.085 448.427 509.504 440.768 504.405L356.203 448H128V432.491L168.704 405.333H426.667V85.3333H448C483.285 85.3333 512 114.048 512 149.333Z" fill="white"/>
</g>
<defs>
<clipPath id="clip0_19_13">
<rect width="512" height="512" fill="white"/>
</clipPath>
</defs>
</svg>
