<svg width="25" height="25" viewBox="0 0 25 25" fill="none" xmlns="http://www.w3.org/2000/svg">
<g clip-path="url(#clip0_48_224)">
<path d="M20.3125 0H4.6875C2.10313 0 0 2.10313 0 4.6875V20.3125C0 22.8969 2.10313 25 4.6875 25H20.3125C22.8969 25 25 22.8969 25 20.3125V4.6875C25 2.10313 22.8969 0 20.3125 0ZM23.9583 20.3125C23.9583 22.3229 22.3229 23.9583 20.3125 23.9583H4.6875C2.67708 23.9583 1.04167 22.3229 1.04167 20.3125V4.6875C1.04167 2.67708 2.67708 1.04167 4.6875 1.04167H20.3125C22.3229 1.04167 23.9583 2.67708 23.9583 4.6875V20.3125Z" fill="#6B6B6B"/>
<path d="M10.8687 12.7898V16.2917H10.325V12.2487L10.8687 12.7903V12.7898ZM15.4906 18.4583H9.50937C9.05969 18.4583 8.69374 18.0938 8.69374 17.6458V10.6237L8.14999 10.082V17.6458C8.14999 18.3928 8.75954 19 9.50937 19H15.4906C15.93 19 16.3171 18.7882 16.5656 18.4648L16.1779 18.0786C16.0333 18.3061 15.7799 18.4583 15.4906 18.4583ZM12.2281 14.144V16.2917H12.7719V14.6856L12.2281 14.144ZM19 18.5916L18.6156 18.9745L6 6.40842L6.38443 6.02546L8.53388 8.16667H9.7807V7.35417C9.7807 6.60721 10.3908 6 11.1401 6H13.8588C14.6081 6 15.2182 6.60721 15.2182 7.35417V8.16667H17.937V8.70833H16.8495V16.4504L18.9995 18.5916H19ZM10.325 8.16667H14.675V7.35417C14.675 6.90621 14.3091 6.54167 13.8594 6.54167H11.1406C10.6909 6.54167 10.325 6.90621 10.325 7.35417V8.16667ZM9.07817 8.70833L12.2281 11.8462V10.875H12.7719V12.3879L14.1313 13.742V10.875H14.675V14.2837L16.3063 15.9087V8.70833H9.07817Z" fill="#525252"/>
</g>
<defs>
<clipPath id="clip0_48_224">
<rect width="25" height="25" fill="white"/>
</clipPath>
</defs>
</svg>
