<svg width="25" height="25" viewBox="0 0 25 25" fill="none" xmlns="http://www.w3.org/2000/svg">
<g clip-path="url(#clip0_48_222)">
<path d="M20.3125 0H4.6875C2.10312 0 0 2.10312 0 4.6875V20.3125C0 22.8969 2.10312 25 4.6875 25H20.3125C22.8969 25 25 22.8969 25 20.3125V4.6875C25 2.10312 22.8969 0 20.3125 0ZM23.9583 20.3125C23.9583 22.3229 22.3229 23.9583 20.3125 23.9583H4.6875C2.67708 23.9583 1.04167 22.3229 1.04167 20.3125V4.6875C1.04167 2.67708 2.67708 1.04167 4.6875 1.04167H20.3125C22.3229 1.04167 23.9583 2.67708 23.9583 4.6875V20.3125ZM15.3458 5.97083L6.27604 15.0406C5.5875 15.7281 5.20833 16.6437 5.20833 17.6187V19.2708C5.20833 19.5583 5.44167 19.7917 5.72917 19.7917H7.38125C8.34062 19.7917 9.28021 19.4021 9.95937 18.724L19.0292 9.65417C20.0448 8.63854 20.0448 6.98646 19.0292 5.97187C18.0469 4.9875 16.3292 4.9875 15.3469 5.97187L15.3458 5.97083ZM9.22187 17.9865C8.7375 18.4719 8.06563 18.749 7.38021 18.749H6.24896V17.6177C6.24896 16.9219 6.51979 16.2677 7.01146 15.776L13.8906 8.89688L16.1 11.1062L9.22083 17.9854L9.22187 17.9865ZM18.2917 8.91667L16.8375 10.3708L14.6281 8.16146L16.0823 6.70729C16.6719 6.11771 17.7021 6.11771 18.2917 6.70729C18.901 7.31667 18.901 8.30729 18.2917 8.91667Z" fill="#6B6B6B"/>
</g>
<defs>
<clipPath id="clip0_48_222">
<rect width="25" height="25" fill="white"/>
</clipPath>
</defs>
</svg>
