<svg width="426" height="512" viewBox="0 0 426 512" fill="none" xmlns="http://www.w3.org/2000/svg">
<path d="M213 0.895996C156.551 0.958099 102.431 23.4085 62.5133 63.3222C22.5956 103.236 0.139754 157.353 0.0719948 213.803C0.0719948 268.629 42.5253 354.432 126.259 468.821C136.227 482.477 149.279 493.587 164.352 501.246C179.424 508.905 196.093 512.897 213 512.897C229.907 512.897 246.576 508.905 261.648 501.246C276.721 493.587 289.773 482.477 299.741 468.821C383.475 354.432 425.928 268.629 425.928 213.803C425.86 157.353 403.404 103.236 363.487 63.3222C323.569 23.4085 269.449 0.958099 213 0.895996ZM213 298.667C196.123 298.667 179.624 293.662 165.591 284.285C151.558 274.909 140.621 261.582 134.162 245.989C127.704 230.396 126.014 213.239 129.306 196.686C132.599 180.133 140.726 164.928 152.66 152.994C164.594 141.059 179.799 132.932 196.352 129.64C212.905 126.347 230.063 128.037 245.656 134.496C261.248 140.954 274.576 151.892 283.952 165.925C293.329 179.958 298.333 196.456 298.333 213.333C298.333 235.965 289.343 257.67 273.34 273.673C257.337 289.676 235.632 298.667 213 298.667Z" fill="white"/>
</svg>
