<svg width="706" height="706" viewBox="0 0 706 706" fill="none" xmlns="http://www.w3.org/2000/svg">
<g clip-path="url(#clip0_19_15)">
<path d="M235.333 661.875C235.333 686.261 215.595 706 191.208 706H161.792C72.5709 706 0 633.429 0 544.208V514.792C0 490.405 19.7386 470.667 44.125 470.667C68.5114 470.667 88.25 490.405 88.25 514.792V544.208C88.25 584.744 121.255 617.75 161.792 617.75H191.208C215.595 617.75 235.333 637.489 235.333 661.875ZM661.875 470.667C637.489 470.667 617.75 490.405 617.75 514.792V544.208C617.75 584.744 584.744 617.75 544.208 617.75H514.792C490.405 617.75 470.667 637.489 470.667 661.875C470.667 686.261 490.405 706 514.792 706H544.208C633.429 706 706 633.429 706 544.208V514.792C706 490.405 686.261 470.667 661.875 470.667ZM544.208 0H514.792C490.405 0 470.667 19.7386 470.667 44.125C470.667 68.5114 490.405 88.25 514.792 88.25H544.208C584.744 88.25 617.75 121.255 617.75 161.792V191.208C617.75 215.595 637.489 235.333 661.875 235.333C686.261 235.333 706 215.595 706 191.208V161.792C706 72.5709 633.429 0 544.208 0ZM44.125 235.333C68.5114 235.333 88.25 215.595 88.25 191.208V161.792C88.25 121.255 121.255 88.25 161.792 88.25H191.208C215.595 88.25 235.333 68.5114 235.333 44.125C235.333 19.7386 215.595 0 191.208 0H161.792C72.5709 0 0 72.5709 0 161.792V191.208C0 215.595 19.7386 235.333 44.125 235.333ZM250.042 147.083H220.625C180.089 147.083 147.083 180.089 147.083 220.625V250.042C147.083 290.578 180.089 323.583 220.625 323.583H250.042C290.578 323.583 323.583 290.578 323.583 250.042V220.625C323.583 180.089 290.578 147.083 250.042 147.083ZM455.958 323.583H485.375C525.911 323.583 558.917 290.578 558.917 250.042V220.625C558.917 180.089 525.911 147.083 485.375 147.083H455.958C415.422 147.083 382.417 180.089 382.417 220.625V250.042C382.417 290.578 415.422 323.583 455.958 323.583ZM250.042 382.417H220.625C180.089 382.417 147.083 415.422 147.083 455.958V485.375C147.083 525.911 180.089 558.917 220.625 558.917H250.042C290.578 558.917 323.583 525.911 323.583 485.375V455.958C323.583 415.422 290.578 382.417 250.042 382.417ZM470.667 426.542C470.667 450.899 490.435 470.667 514.792 470.667C539.149 470.667 558.917 450.899 558.917 426.542C558.917 402.185 539.149 382.417 514.792 382.417C490.435 382.417 470.667 402.185 470.667 426.542ZM426.542 470.667C402.185 470.667 382.417 490.435 382.417 514.792C382.417 539.149 402.185 558.917 426.542 558.917C450.899 558.917 470.667 539.149 470.667 514.792C470.667 490.435 450.899 470.667 426.542 470.667Z" fill="white"/>
</g>
<defs>
<clipPath id="clip0_19_15">
<rect width="706" height="706" fill="white"/>
</clipPath>
</defs>
</svg>
