<svg width="512" height="512" viewBox="0 0 512 512" fill="none" xmlns="http://www.w3.org/2000/svg">
<g clip-path="url(#clip0_19_21)">
<path d="M493.163 210.752L387.563 105.152L342.315 150.4L416 224H141.163V288H416L342.4 361.6L387.648 406.848L493.248 301.248C505.235 289.235 511.96 272.953 511.944 255.982C511.928 239.012 505.172 222.743 493.163 210.752Z" fill="white"/>
<path d="M213.205 437.333C213.205 440.162 212.081 442.875 210.081 444.876C208.081 446.876 205.368 448 202.539 448H74.7946C71.9656 448 69.2525 446.876 67.2521 444.876C65.2517 442.875 64.1279 440.162 64.1279 437.333V75.328C64.1279 72.4991 65.2517 69.786 67.2521 67.7856C69.2525 65.7852 71.9656 64.6614 74.7946 64.6614H202.539C205.368 64.6614 208.081 65.7852 210.081 67.7856C212.081 69.786 213.205 72.4991 213.205 75.328V178.027H277.205V75.328C277.177 55.5339 269.301 36.5585 255.305 22.5619C241.308 8.5653 222.333 0.689594 202.539 0.661377H74.7946C55.0004 0.689594 36.0251 8.5653 22.0285 22.5619C8.03185 36.5585 0.156147 55.5339 0.12793 75.328V437.333C0.12793 457.136 7.99457 476.128 21.9973 490.131C36 504.133 54.9918 512 74.7946 512H202.539C222.341 512 241.333 504.133 255.336 490.131C269.339 476.128 277.205 457.136 277.205 437.333V334.571H213.205V437.333Z" fill="white"/>
</g>
<defs>
<clipPath id="clip0_19_21">
<rect width="512" height="512" fill="white"/>
</clipPath>
</defs>
</svg>
