<svg width="40" height="40" viewBox="0 0 40 40" fill="none" xmlns="http://www.w3.org/2000/svg">
<path d="M20 16.6667H5C2.24333 16.6667 0 18.91 0 21.6667V28.3333H3.33333V31.6667H0V35H3.33333V40H6.66667V35H18.3333V40H21.6667V35H25V31.6667H21.6667V28.3333H25V21.6667C25 18.91 22.7567 16.6667 20 16.6667ZM18.3333 31.6667H6.66667V28.3333H18.3333V31.6667ZM39.0917 16.6667C39.6833 17.6767 40 18.825 40 20C40 23.6767 37.01 26.6667 33.3333 26.6667C32.765 26.6667 32.21 26.5667 31.6667 26.4233V40H28.3333V21.6667C28.3333 17.0717 24.595 13.3333 20 13.3333C20 10.905 21.3367 8.70833 23.3933 7.54667C23.3533 7.255 23.3333 6.96 23.3333 6.66667C23.3333 2.99 26.3233 0 30 0C33.6767 0 36.6667 2.99 36.6667 6.66667C36.6667 6.96167 36.6467 7.25667 36.6067 7.54667C38.6633 8.70667 40 10.905 40 13.3333C40 14.5083 39.6833 15.6567 39.0917 16.6667Z" fill="#2D6F28"/>
</svg>
