<svg width="60" height="60" viewBox="0 0 60 60" fill="none" xmlns="http://www.w3.org/2000/svg">
<g id="calendar-clock 1" clip-path="url(#clip0_48_131)">
<path id="Vector" d="M43.75 27.5975C34.79 27.5975 27.5 34.8875 27.5 43.8475C27.5 52.755 34.79 60 43.75 60C52.71 60 60 52.71 60 43.75C60 34.8425 52.71 27.5975 43.75 27.5975ZM43.75 57.5C36.17 57.5 30 51.375 30 43.8475C30 36.265 36.17 30.0975 43.75 30.0975C51.33 30.0975 57.5 36.2225 57.5 43.75C57.5 51.3325 51.33 57.5 43.75 57.5ZM47.135 45.365C47.6225 45.8525 47.6225 46.645 47.135 47.1325C46.89 47.3775 46.57 47.4975 46.25 47.4975C45.93 47.4975 45.61 47.375 45.365 47.1325L42.865 44.6325C42.63 44.3975 42.5 44.08 42.5 43.7475V38.7475C42.5 38.0575 43.06 37.4975 43.75 37.4975C44.44 37.4975 45 38.0575 45 38.7475V43.23L47.135 45.365ZM48.75 5H45V1.25C45 0.56 44.44 0 43.75 0C43.06 0 42.5 0.56 42.5 1.25V5H17.5V1.25C17.5 0.56 16.94 0 16.25 0C15.56 0 15 0.56 15 1.25V5H11.25C5.0475 5 0 10.0475 0 16.25V48.75C0 54.9525 5.0475 60 11.25 60H26.25C26.94 60 27.5 59.44 27.5 58.75C27.5 58.06 26.94 57.5 26.25 57.5H11.25C6.425 57.5 2.5 53.575 2.5 48.75V22.5H57.5V26.25C57.5 26.94 58.06 27.5 58.75 27.5C59.44 27.5 60 26.94 60 26.25V16.25C60 10.0475 54.9525 5 48.75 5ZM2.5 20V16.25C2.5 11.425 6.425 7.5 11.25 7.5H48.75C53.575 7.5 57.5 11.425 57.5 16.25V20H2.5Z" fill="#8C8C8C"/>
</g>
<defs>
<clipPath id="clip0_48_131">
<rect width="60" height="60" fill="white"/>
</clipPath>
</defs>
</svg>
