<svg width="45" height="45" viewBox="0 0 45 45" fill="none" xmlns="http://www.w3.org/2000/svg">
<path d="M6.2625 36.8245L13.6931 31.8697H33.75V5.62406C33.75 2.52333 31.2263 0 28.125 0H5.625C2.52375 0 0 2.52333 0 5.62406V33.4707C0 34.9573 0.815625 36.3183 2.12625 37.0213C2.7225 37.3419 3.37687 37.4994 4.02937 37.4994C4.80937 37.4994 5.5875 37.2725 6.2625 36.8245ZM45 13.1228V40.9694C45 42.456 44.1844 43.8171 42.8737 44.5201C42.2775 44.8407 41.6231 44.9981 40.9706 45C40.1906 45 39.4125 44.7732 38.7394 44.3251L31.3069 39.3684H11.25V38.0055L14.8275 35.6191H37.5V7.49875H39.375C42.4763 7.49875 45 10.0221 45 13.1228Z" fill="white"/>
</svg>
