<svg width="15" height="15" viewBox="0 0 15 15" fill="none" xmlns="http://www.w3.org/2000/svg">
<g clip-path="url(#clip0_48_205)">
<path d="M9.90875 5.53375L7.9425 7.5L9.90875 9.46625C10.0306 9.58812 10.0306 9.78625 9.90875 9.90812C9.8475 9.96937 9.7675 9.99937 9.6875 9.99937C9.6075 9.99937 9.5275 9.96875 9.46625 9.90812L7.5 7.94187L5.53375 9.90812C5.4725 9.96937 5.3925 9.99937 5.3125 9.99937C5.2325 9.99937 5.1525 9.96875 5.09125 9.90812C4.96937 9.78625 4.96937 9.58812 5.09125 9.46625L7.0575 7.5L5.09125 5.53375C4.96937 5.41188 4.96937 5.21375 5.09125 5.09188C5.21312 4.97 5.41125 4.97 5.53312 5.09188L7.49937 7.05813L9.46563 5.09188C9.5875 4.97 9.78563 4.97 9.9075 5.09188C10.0294 5.21375 10.0294 5.41188 9.9075 5.53375H9.90875ZM15 7.5C15 11.6356 11.6356 15 7.5 15C3.36437 15 0 11.6356 0 7.5C0 3.36437 3.36437 0 7.5 0C11.6356 0 15 3.36437 15 7.5ZM14.375 7.5C14.375 3.70937 11.2906 0.625 7.5 0.625C3.70937 0.625 0.625 3.70937 0.625 7.5C0.625 11.2906 3.70937 14.375 7.5 14.375C11.2906 14.375 14.375 11.2906 14.375 7.5Z" fill="#808080"/>
</g>
<defs>
<clipPath id="clip0_48_205">
<rect width="15" height="15" fill="white"/>
</clipPath>
</defs>
</svg>
