<svg width="40" height="40" viewBox="0 0 40 40" fill="none" xmlns="http://www.w3.org/2000/svg">
<g clip-path="url(#clip0_25_4)">
<path d="M36.03 8.33333C35.515 8.33333 35.0533 8.04833 34.8233 7.58833C34.025 5.99167 32.42 5 30.6367 5H28.3333V1.28333C28.3333 0.408333 27.4633 -0.223334 26.6417 0.0733327C24.7133 0.766666 23.3333 2.61167 23.3333 4.78V7.5L21.7267 12.2317C21.4883 12.89 20.8583 13.3317 20.16 13.3333L11.6633 13.3383C9.845 13.3383 8.16333 13.9267 6.79167 14.9183C5.79167 14.4567 3.33333 13.0167 3.33333 10C3.33333 9.08 2.58667 8.33333 1.66667 8.33333C0.746667 8.33333 0 9.08 0 10C0 14.12 2.66 16.39 4.48 17.46C3.75167 18.6967 3.335 20.1367 3.335 21.6733L3.33833 35.01C3.33833 37.765 5.58167 40.0067 8.33667 40.0067C11.0917 40.0067 13.335 37.765 13.335 35.0083V31.6717L21.6683 31.6667V35.0017C21.6683 37.7567 23.91 40 26.6767 40C29.4433 40 31.675 37.7583 31.675 35.0017V30.3917C31.675 29.695 31.7483 28.9967 31.8933 28.3133L33.6633 19.99C37.1883 19.82 40.0033 16.8983 40.0033 13.3317V12.4983C40.0033 9.44167 37.63 8.33167 36.0333 8.33167L36.03 8.33333ZM36.6667 13.3333C36.6667 15.1717 35.1717 16.6667 33.3333 16.6667C31.955 16.6667 30.7483 17.645 30.465 18.99L28.63 27.6217C28.4367 28.5317 28.3383 29.4633 28.3383 30.3933V35.0033C28.3383 35.9217 27.5917 36.6683 26.6633 36.6683C25.745 36.6683 24.9983 35.9217 24.9983 35.0033V30.0017C24.9983 29.56 24.8233 29.135 24.51 28.8217C24.1967 28.51 23.7733 28.335 23.3317 28.335L11.665 28.3417C10.745 28.3417 9.99833 29.0883 9.99833 30.0083V35.01C9.99833 35.9283 9.25167 36.675 8.33333 36.675C7.415 36.675 6.66833 35.9283 6.66833 35.01L6.665 21.6733C6.665 18.9167 8.90667 16.6733 11.6617 16.6717L20.1583 16.6667C22.2567 16.6667 24.1467 15.3383 24.8583 13.3633L26.6733 8.33333H30.6317C31.1467 8.33333 31.6083 8.61833 31.8383 9.07833C32.6367 10.675 34.2417 11.6667 36.025 11.6667C36.6617 11.6667 36.6617 12.2717 36.6617 12.5V13.3333H36.6667Z" fill="white"/>
</g>
<defs>
<clipPath id="clip0_25_4">
<rect width="40" height="40" fill="white"/>
</clipPath>
</defs>
</svg>
