<svg width="45" height="45" viewBox="0 0 45 45" fill="none" xmlns="http://www.w3.org/2000/svg">
<g clip-path="url(#clip0_25_23)">
<path d="M41.25 9.37511H40.5338C39.9544 9.37511 39.435 9.05449 39.1763 8.53699C38.2781 6.74074 36.4725 5.62511 34.4663 5.62511H31.875V1.44386C31.875 0.459488 30.8963 -0.251137 29.9719 0.0826128C27.8025 0.862613 26.25 2.93824 26.25 5.37761V8.43761L24.4425 13.7607C24.1744 14.5014 23.4656 14.9982 22.68 15.0001L13.1213 15.0057C11.0756 15.0057 9.18375 15.6676 7.64063 16.7832C6.51563 16.2639 3.75 14.6439 3.75 11.2501C3.75 10.2151 2.91 9.37511 1.875 9.37511C0.84 9.37511 0 10.2151 0 11.2501C0 15.8851 2.9925 18.4389 5.04 19.6426C4.22063 21.0339 3.75188 22.6539 3.75188 24.3826L3.75563 40.3257C3.75563 42.9076 5.85938 45.0095 8.44125 45.0095C11.0231 45.0095 13.1269 42.9076 13.1269 40.3239V33.7501L24.3769 33.7445V40.3145C24.3769 42.8982 26.4806 45.002 29.0644 45.002C31.6481 45.002 33.7519 42.8982 33.7519 40.3145V34.1926C33.7519 33.4426 33.8288 32.6907 33.9769 31.9557L37.8394 20.4282C41.82 20.252 45.0019 16.9576 45.0019 12.9357C45.0019 11.2107 43.6875 9.37699 41.2519 9.37699L41.25 9.37511Z" fill="white"/>
</g>
<defs>
<clipPath id="clip0_25_23">
<rect width="45" height="45" fill="white"/>
</clipPath>
</defs>
</svg>
