<svg width="40" height="40" viewBox="0 0 40 40" fill="none" xmlns="http://www.w3.org/2000/svg">
<g clip-path="url(#clip0_25_6)">
<path d="M20 10C18.6814 10 17.3925 10.391 16.2962 11.1235C15.1999 11.8561 14.3454 12.8973 13.8408 14.1154C13.3362 15.3336 13.2042 16.6741 13.4614 17.9673C13.7186 19.2605 14.3536 20.4484 15.2859 21.3807C16.2183 22.3131 17.4062 22.948 18.6994 23.2052C19.9926 23.4625 21.333 23.3304 22.5512 22.8259C23.7694 22.3213 24.8106 21.4668 25.5431 20.3705C26.2757 19.2741 26.6667 17.9852 26.6667 16.6667C26.6667 14.8986 25.9643 13.2029 24.714 11.9526C23.4638 10.7024 21.7681 10 20 10ZM20 20C19.3407 20 18.6962 19.8045 18.1481 19.4382C17.5999 19.072 17.1727 18.5514 16.9204 17.9423C16.6681 17.3332 16.6021 16.663 16.7307 16.0164C16.8593 15.3698 17.1768 14.7758 17.643 14.3096C18.1091 13.8435 18.7031 13.526 19.3497 13.3974C19.9963 13.2688 20.6665 13.3348 21.2756 13.5871C21.8847 13.8394 22.4053 14.2666 22.7715 14.8148C23.1378 15.3629 23.3333 16.0074 23.3333 16.6667C23.3333 17.5507 22.9821 18.3986 22.357 19.0237C21.7319 19.6488 20.884 20 20 20Z" fill="white"/>
<path d="M20 40C18.5965 40.0072 17.2118 39.678 15.9617 39.0401C14.7117 38.4021 13.6326 37.474 12.815 36.3333C6.4633 27.5717 3.24164 20.985 3.24164 16.755C3.24164 12.3104 5.00724 8.04787 8.15004 4.90507C11.2928 1.76227 15.5554 -0.00333405 20 -0.00333405C24.4446 -0.00333405 28.7071 1.76227 31.8499 4.90507C34.9927 8.04787 36.7583 12.3104 36.7583 16.755C36.7583 20.985 33.5366 27.5717 27.185 36.3333C26.3673 37.474 25.2883 38.4021 24.0382 39.0401C22.7881 39.678 21.4034 40.0072 20 40ZM20 3.635C16.5207 3.63897 13.185 5.02288 10.7248 7.48312C8.26452 9.94336 6.88061 13.279 6.87664 16.7583C6.87664 20.1083 10.0316 26.3033 15.7583 34.2017C16.2445 34.8713 16.8823 35.4163 17.6195 35.7921C18.3567 36.1679 19.1725 36.3638 20 36.3638C20.8275 36.3638 21.6432 36.1679 22.3805 35.7921C23.1177 35.4163 23.7555 34.8713 24.2416 34.2017C29.9683 26.3033 33.1233 20.1083 33.1233 16.7583C33.1193 13.279 31.7354 9.94336 29.2752 7.48312C26.8149 5.02288 23.4793 3.63897 20 3.635Z" fill="white"/>
</g>
<defs>
<clipPath id="clip0_25_6">
<rect width="40" height="40" fill="white"/>
</clipPath>
</defs>
</svg>
