<svg width="512" height="540" viewBox="0 0 512 540" fill="none" xmlns="http://www.w3.org/2000/svg">
<path d="M64.7842 411H398.779C409.058 411 419.186 408.525 428.306 403.783C437.426 399.041 445.269 392.171 451.173 383.757C457.076 375.342 460.866 365.629 462.222 355.44C463.577 345.25 462.459 334.884 458.96 325.219L398.118 157.005C387.727 119.623 365.377 86.6734 334.487 63.1956C303.597 39.7179 265.866 27.0045 227.067 27C186.677 26.9994 147.495 40.7725 115.989 66.0455C84.4829 91.3184 62.5376 126.58 53.7762 166.008L3.64287 328.141C0.691184 337.714 0.0276177 347.845 1.70556 357.721C3.3835 367.596 7.3561 376.94 13.3037 385C19.2513 393.06 27.0079 399.612 35.9492 404.128C44.8906 408.643 54.7672 410.997 64.7842 411Z" fill="white"/>
<path d="M129.467 453.667C134.363 477.78 147.445 499.458 166.496 515.029C185.547 530.601 209.395 539.107 234 539.107C258.605 539.107 282.453 530.601 301.504 515.029C320.555 499.458 333.637 477.78 338.533 453.667H129.467Z" fill="white"/>
<circle cx="392" cy="120" r="120" fill="#F12657"/>
</svg>
