<svg width="45" height="45" viewBox="0 0 45 45" fill="none" xmlns="http://www.w3.org/2000/svg">
<g clip-path="url(#clip0_25_15)">
<path d="M30 35.625V43.6875C27.6506 44.5219 25.1325 45 22.5 45C19.8675 45 17.3494 44.5219 15 43.6875V35.625C15 34.59 15.8419 33.75 16.875 33.75H28.125C29.1581 33.75 30 34.59 30 35.625ZM22.5 15C20.4319 15 18.75 16.6819 18.75 18.75C18.75 20.8181 20.4319 22.5 22.5 22.5C24.5681 22.5 26.25 20.8181 26.25 18.75C26.25 16.6819 24.5681 15 22.5 15ZM33.75 41.955V35.625C33.75 32.5237 31.2263 30 28.125 30H16.875C13.7737 30 11.25 32.5237 11.25 35.625V41.955C4.53562 38.0587 0 30.8062 0 22.5C0 10.0931 10.0931 0 22.5 0C34.9069 0 45 10.0931 45 22.5C45 30.8062 40.4644 38.0587 33.75 41.955ZM30 18.75C30 14.6137 26.6363 11.25 22.5 11.25C18.3637 11.25 15 14.6137 15 18.75C15 22.8863 18.3637 26.25 22.5 26.25C26.6363 26.25 30 22.8863 30 18.75Z" fill="white"/>
</g>
<defs>
<clipPath id="clip0_25_15">
<rect width="45" height="45" fill="white"/>
</clipPath>
</defs>
</svg>
