<svg width="25" height="25" viewBox="0 0 25 25" fill="none" xmlns="http://www.w3.org/2000/svg">
<path d="M17.7083 12.5C17.7083 12.7875 17.475 13.0208 17.1875 13.0208H13.0208V17.1875C13.0208 17.475 12.7875 17.7083 12.5 17.7083C12.2125 17.7083 11.9792 17.475 11.9792 17.1875V13.0208H7.8125C7.525 13.0208 7.29167 12.7875 7.29167 12.5C7.29167 12.2125 7.525 11.9792 7.8125 11.9792H11.9792V7.8125C11.9792 7.525 12.2125 7.29167 12.5 7.29167C12.7875 7.29167 13.0208 7.525 13.0208 7.8125V11.9792H17.1875C17.475 11.9792 17.7083 12.2125 17.7083 12.5ZM25 4.6875V20.3125C25 22.8969 22.8969 25 20.3125 25H4.6875C2.10312 25 0 22.8969 0 20.3125V4.6875C0 2.10312 2.10312 0 4.6875 0H20.3125C22.8969 0 25 2.10312 25 4.6875ZM23.9583 4.6875C23.9583 2.67708 22.3229 1.04167 20.3125 1.04167H4.6875C2.67708 1.04167 1.04167 2.67708 1.04167 4.6875V20.3125C1.04167 22.3229 2.67708 23.9583 4.6875 23.9583H20.3125C22.3229 23.9583 23.9583 22.3229 23.9583 20.3125V4.6875Z" fill="#6B6B6B"/>
</svg>
