<svg width="88" height="108" viewBox="0 0 88 108" fill="none" xmlns="http://www.w3.org/2000/svg">
<g filter="url(#filter0_d_112_41)">
<circle cx="43" cy="41" r="25" fill="white"/>
<path d="M44 0C33.3956 0.0121295 23.2288 4.39697 15.73 12.1926C8.23122 19.9882 4.01273 30.558 4 41.5833C4 52.2916 11.9752 69.0499 27.705 91.3915C29.5776 94.0587 32.0295 96.2285 34.861 97.7244C37.6926 99.2203 40.8239 100 44 100C47.1761 100 50.3074 99.2203 53.139 97.7244C55.9705 96.2285 58.4224 94.0587 60.295 91.3915C76.0248 69.0499 84 52.2916 84 41.5833C83.9873 30.558 79.7688 19.9882 72.27 12.1926C64.7712 4.39697 54.6044 0.0121295 44 0ZM44 58.1582C40.8295 58.1582 37.7301 57.1808 35.094 55.3494C32.4578 53.518 30.4031 50.9151 29.1898 47.8696C27.9765 44.8242 27.659 41.4731 28.2776 38.2401C28.8961 35.0071 30.4229 32.0374 32.6648 29.7065C34.9067 27.3756 37.763 25.7883 40.8726 25.1452C43.9822 24.5021 47.2054 24.8322 50.1346 26.0936C53.0638 27.3551 55.5674 29.4913 57.3288 32.2321C59.0903 34.9729 60.0305 38.1952 60.0305 41.4916C60.0305 45.9119 58.3415 50.1511 55.3352 53.2767C52.3289 56.4023 48.2515 58.1582 44 58.1582Z" fill="white"/>
</g>
<path d="M53 51.3333C53 51.7754 52.7893 52.1993 52.4142 52.5118C52.0391 52.8244 51.5304 53 51 53H39C38.4696 53 37.9609 52.8244 37.5858 52.5118C37.2107 52.1993 37 51.7754 37 51.3333C37 50.8913 37.2107 50.4674 37.5858 50.1548C37.9609 49.8423 38.4696 49.6667 39 49.6667H51C51.5304 49.6667 52.0391 49.8423 52.4142 50.1548C52.7893 50.4674 53 50.8913 53 51.3333ZM65 51.3333V53C64.9968 55.6514 63.7315 58.1934 61.4818 60.0681C59.232 61.9429 56.1816 62.9974 53 63H37C33.8184 62.9974 30.768 61.9429 28.5182 60.0681C26.2685 58.1934 25.0032 55.6514 25 53V51.3333C24.9965 48.5677 25.9165 45.8557 27.6571 43.5009C29.3978 41.1462 31.8904 39.2415 34.856 38H55.144C58.1096 39.2415 60.6022 41.1462 62.3429 43.5009C64.0835 45.8557 65.0035 48.5677 65 51.3333ZM57 51.3333C57 50.0073 56.3679 48.7355 55.2426 47.7978C54.1174 46.8601 52.5913 46.3333 51 46.3333H39C37.4087 46.3333 35.8826 46.8601 34.7574 47.7978C33.6321 48.7355 33 50.0073 33 51.3333C33 52.6594 33.6321 53.9312 34.7574 54.8689C35.8826 55.8065 37.4087 56.3333 39 56.3333H51C52.5913 56.3333 54.1174 55.8065 55.2426 54.8689C56.3679 53.9312 57 52.6594 57 51.3333ZM55 33C55 32.1159 54.5786 31.2681 53.8284 30.643C53.0783 30.0179 52.0609 29.6667 51 29.6667V26.3333H59C59.5304 26.3333 60.0391 26.1577 60.4142 25.8452C60.7893 25.5326 61 25.1087 61 24.6667C61 24.2246 60.7893 23.8007 60.4142 23.4882C60.0391 23.1756 59.5304 23 59 23H45C43.4087 23 41.8826 23.5268 40.7574 24.4645C39.6321 25.4021 39 26.6739 39 28V29.6667C37.9391 29.6667 36.9217 30.0179 36.1716 30.643C35.4214 31.2681 35 32.1159 35 33V34.6667H55V33Z" fill="#2D6F28"/>
<defs>
<filter id="filter0_d_112_41" x="0" y="0" width="88" height="108" filterUnits="userSpaceOnUse" color-interpolation-filters="sRGB">
<feFlood flood-opacity="0" result="BackgroundImageFix"/>
<feColorMatrix in="SourceAlpha" type="matrix" values="0 0 0 0 0 0 0 0 0 0 0 0 0 0 0 0 0 0 127 0" result="hardAlpha"/>
<feOffset dy="4"/>
<feGaussianBlur stdDeviation="2"/>
<feComposite in2="hardAlpha" operator="out"/>
<feColorMatrix type="matrix" values="0 0 0 0 0 0 0 0 0 0 0 0 0 0 0 0 0 0 0.25 0"/>
<feBlend mode="normal" in2="BackgroundImageFix" result="effect1_dropShadow_112_41"/>
<feBlend mode="normal" in="SourceGraphic" in2="effect1_dropShadow_112_41" result="shape"/>
</filter>
</defs>
</svg>
