<svg width="1920" height="1080" viewBox="0 0 1920 1080" fill="none" xmlns="http://www.w3.org/2000/svg">
<rect width="1920" height="1080" fill="#D9D9D9"/>
<path d="M1077.34 795.995C1059.91 795.167 1042.67 791.914 1026.14 786.331C983.22 771.696 936.662 771.696 893.743 786.331C823.343 811.505 765.231 786.779 767.877 718.534C768.005 617.67 863.109 518.662 960.005 518.662C1056.9 518.662 1152 617.67 1152 718.534C1152 753.862 1139.06 795.995 1077.34 795.995ZM1170.01 390.961C1140.91 387.483 1114.54 415.025 1109.98 464.774C1100.74 582.278 1201.86 597.574 1215.39 477.339C1219.93 427.611 1199.11 394.438 1170.01 390.961ZM704.623 477.339C718.17 597.595 819.205 582.193 810.031 464.774C805.466 415.025 779.098 387.483 749.999 390.961C720.901 394.438 700.079 427.611 704.623 477.339ZM831.514 370.673C845.061 490.971 946.159 475.526 936.901 358.107C932.271 308.358 905.989 280.817 876.805 284.294C847.621 287.771 826.949 320.945 831.514 370.673ZM1042.01 284.294C1012.91 280.817 986.543 308.358 981.978 358.107C972.741 475.611 1073.86 490.907 1087.39 370.673C1091.93 320.945 1071.11 287.771 1042.01 284.294Z" fill="#6B6B6B"/>
</svg>
