<svg width="80" height="100" viewBox="0 0 80 100" fill="none" xmlns="http://www.w3.org/2000/svg">
<circle cx="39" cy="41" r="25" fill="white"/>
<path d="M40 0C29.3956 0.0121295 19.2288 4.39697 11.73 12.1926C4.23122 19.9882 0.012729 30.558 0 41.5833C0 52.2916 7.97515 69.0499 23.705 91.3915C25.5776 94.0587 28.0295 96.2285 30.861 97.7244C33.6926 99.2203 36.8239 100 40 100C43.1761 100 46.3074 99.2203 49.139 97.7244C51.9705 96.2285 54.4224 94.0587 56.295 91.3915C72.0248 69.0499 80 52.2916 80 41.5833C79.9873 30.558 75.7688 19.9882 68.27 12.1926C60.7712 4.39697 50.6044 0.0121295 40 0ZM40 58.1582C36.8295 58.1582 33.7301 57.1808 31.094 55.3494C28.4578 53.518 26.4031 50.9151 25.1898 47.8696C23.9765 44.8242 23.659 41.4731 24.2776 38.2401C24.8961 35.0071 26.4229 32.0374 28.6648 29.7065C30.9067 27.3756 33.763 25.7883 36.8726 25.1452C39.9822 24.5021 43.2054 24.8322 46.1346 26.0936C49.0638 27.3551 51.5674 29.4913 53.3288 32.2321C55.0903 34.9729 56.0305 38.1952 56.0305 41.4916C56.0305 45.9119 54.3415 50.1511 51.3352 53.2767C48.3289 56.4023 44.2515 58.1582 40 58.1582Z" fill="white"/>
<g clip-path="url(#clip0_100_31)">
<path d="M41 36.8333H22.25C18.8042 36.8333 16 39.6375 16 43.0833V51.4167H20.1667V55.5833H16V59.75H20.1667V66H24.3333V59.75H38.9167V66H43.0833V59.75H47.25V55.5833H43.0833V51.4167H47.25V43.0833C47.25 39.6375 44.4458 36.8333 41 36.8333ZM38.9167 55.5833H24.3333V51.4167H38.9167V55.5833ZM64.8646 36.8333C65.6042 38.0958 66 39.5312 66 41C66 45.5958 62.2625 49.3333 57.6667 49.3333C56.9562 49.3333 56.2625 49.2083 55.5833 49.0292V66H51.4167V43.0833C51.4167 37.3396 46.7437 32.6667 41 32.6667C41 29.6312 42.6708 26.8854 45.2417 25.4333C45.1917 25.0687 45.1667 24.7 45.1667 24.3333C45.1667 19.7375 48.9042 16 53.5 16C58.0958 16 61.8333 19.7375 61.8333 24.3333C61.8333 24.7021 61.8083 25.0708 61.7583 25.4333C64.3292 26.8833 66 29.6312 66 32.6667C66 34.1354 65.6042 35.5708 64.8646 36.8333Z" fill="#2D6F28"/>
</g>
<defs>
<clipPath id="clip0_100_31">
<rect width="50" height="50" fill="white" transform="translate(16 16)"/>
</clipPath>
</defs>
</svg>
