<svg width="88" height="108" viewBox="0 0 88 108" fill="none" xmlns="http://www.w3.org/2000/svg">
<g filter="url(#filter0_d_112_38)">
<circle cx="43" cy="41" r="25" fill="white"/>
<path d="M44 0C33.3956 0.0121295 23.2288 4.39697 15.73 12.1926C8.23122 19.9882 4.01273 30.558 4 41.5833C4 52.2916 11.9752 69.0499 27.705 91.3915C29.5776 94.0587 32.0295 96.2285 34.861 97.7244C37.6926 99.2203 40.8239 100 44 100C47.1761 100 50.3074 99.2203 53.139 97.7244C55.9705 96.2285 58.4224 94.0587 60.295 91.3915C76.0248 69.0499 84 52.2916 84 41.5833C83.9873 30.558 79.7688 19.9882 72.27 12.1926C64.7712 4.39697 54.6044 0.0121295 44 0ZM44 58.1582C40.8295 58.1582 37.7301 57.1808 35.094 55.3494C32.4578 53.518 30.4031 50.9151 29.1898 47.8696C27.9765 44.8242 27.659 41.4731 28.2776 38.2401C28.8961 35.0071 30.4229 32.0374 32.6648 29.7065C34.9067 27.3756 37.763 25.7883 40.8726 25.1452C43.9822 24.5021 47.2054 24.8322 50.1346 26.0936C53.0638 27.3551 55.5674 29.4913 57.3288 32.2321C59.0903 34.9729 60.0305 38.1952 60.0305 41.4916C60.0305 45.9119 58.3415 50.1511 55.3352 53.2767C52.3289 56.4023 48.2515 58.1582 44 58.1582Z" fill="white"/>
</g>
<path d="M46.7083 25V21.6667C46.7083 21.2246 46.8839 20.8007 47.1965 20.4882C47.509 20.1756 47.933 20 48.375 20C48.817 20 49.241 20.1756 49.5535 20.4882C49.8661 20.8007 50.0417 21.2246 50.0417 21.6667V25C50.0417 25.442 49.8661 25.866 49.5535 26.1785C49.241 26.4911 48.817 26.6667 48.375 26.6667C47.933 26.6667 47.509 26.4911 47.1965 26.1785C46.8839 25.866 46.7083 25.442 46.7083 25ZM41.7083 26.6667C42.1504 26.6667 42.5743 26.4911 42.8868 26.1785C43.1994 25.866 43.375 25.442 43.375 25V21.6667C43.375 21.2246 43.1994 20.8007 42.8868 20.4882C42.5743 20.1756 42.1504 20 41.7083 20C41.2663 20 40.8424 20.1756 40.5298 20.4882C40.2173 20.8007 40.0417 21.2246 40.0417 21.6667V25C40.0417 25.442 40.2173 25.866 40.5298 26.1785C40.8424 26.4911 41.2663 26.6667 41.7083 26.6667ZM35.0417 26.6667C35.4837 26.6667 35.9076 26.4911 36.2202 26.1785C36.5327 25.866 36.7083 25.442 36.7083 25V21.6667C36.7083 21.2246 36.5327 20.8007 36.2202 20.4882C35.9076 20.1756 35.4837 20 35.0417 20C34.5996 20 34.1757 20.1756 33.8632 20.4882C33.5506 20.8007 33.375 21.2246 33.375 21.6667V25C33.375 25.442 33.5506 25.866 33.8632 26.1785C34.1757 26.4911 34.5996 26.6667 35.0417 26.6667ZM65 41.905C64.9453 43.6339 64.218 45.2731 62.9728 46.4737C61.7276 47.6744 60.063 48.3416 58.3333 48.3333H54.2083C53.1469 49.889 51.7184 51.1591 50.0492 52.0312C48.38 52.9033 46.5216 53.3506 44.6383 53.3333H38.6933C36.7783 53.3525 34.889 52.8915 33.1981 51.9924C31.5071 51.0934 30.0684 49.7849 29.0133 48.1867C26.6533 44.4217 20.9117 30.6183 30 30H53.3333C54.1282 30.0216 54.9073 30.2263 55.61 30.5983C56.3128 30.9702 56.9202 31.4994 57.385 32.1445C57.8499 32.7896 58.1595 33.5333 58.2899 34.3176C58.4202 35.102 58.3678 35.9059 58.1367 36.6667C62.255 36.6667 65 38.675 65 41.905ZM61.6667 41.905C61.8133 40.36 59.5833 39.865 57.57 40C57.1975 41.7127 56.6651 43.3867 55.98 45H58.3333C59.1794 45.0086 59.9966 44.6924 60.6167 44.1167C61.2368 43.541 61.6125 42.7494 61.6667 41.905ZM56.6667 56.6667H26.6667C26.2246 56.6667 25.8007 56.8423 25.4882 57.1548C25.1756 57.4674 25 57.8913 25 58.3333C25 58.7754 25.1756 59.1993 25.4882 59.5118C25.8007 59.8244 26.2246 60 26.6667 60H56.6667C57.1087 60 57.5326 59.8244 57.8452 59.5118C58.1577 59.1993 58.3333 58.7754 58.3333 58.3333C58.3333 57.8913 58.1577 57.4674 57.8452 57.1548C57.5326 56.8423 57.1087 56.6667 56.6667 56.6667Z" fill="#2D6F28"/>
<defs>
<filter id="filter0_d_112_38" x="0" y="0" width="88" height="108" filterUnits="userSpaceOnUse" color-interpolation-filters="sRGB">
<feFlood flood-opacity="0" result="BackgroundImageFix"/>
<feColorMatrix in="SourceAlpha" type="matrix" values="0 0 0 0 0 0 0 0 0 0 0 0 0 0 0 0 0 0 127 0" result="hardAlpha"/>
<feOffset dy="4"/>
<feGaussianBlur stdDeviation="2"/>
<feComposite in2="hardAlpha" operator="out"/>
<feColorMatrix type="matrix" values="0 0 0 0 0 0 0 0 0 0 0 0 0 0 0 0 0 0 0.25 0"/>
<feBlend mode="normal" in2="BackgroundImageFix" result="effect1_dropShadow_112_38"/>
<feBlend mode="normal" in="SourceGraphic" in2="effect1_dropShadow_112_38" result="shape"/>
</filter>
</defs>
</svg>
