    <svg width="88" height="108" viewBox="0 0 88 108" fill="none" xmlns="http://www.w3.org/2000/svg">
<g filter="url(#filter0_d_112_40)">
<circle cx="43" cy="41" r="25" fill="white"/>
<path d="M44 0C33.3956 0.0121295 23.2288 4.39697 15.73 12.1926C8.23122 19.9882 4.01273 30.558 4 41.5833C4 52.2916 11.9752 69.0499 27.705 91.3915C29.5776 94.0587 32.0295 96.2285 34.861 97.7244C37.6926 99.2203 40.8239 100 44 100C47.1761 100 50.3074 99.2203 53.139 97.7244C55.9705 96.2285 58.4224 94.0587 60.295 91.3915C76.0248 69.0499 84 52.2916 84 41.5833C83.9873 30.558 79.7688 19.9882 72.27 12.1926C64.7712 4.39697 54.6044 0.0121295 44 0ZM44 58.1582C40.8295 58.1582 37.7301 57.1808 35.094 55.3494C32.4578 53.518 30.4031 50.9151 29.1898 47.8696C27.9765 44.8242 27.659 41.4731 28.2776 38.2401C28.8961 35.0071 30.4229 32.0374 32.6648 29.7065C34.9067 27.3756 37.763 25.7883 40.8726 25.1452C43.9822 24.5021 47.2054 24.8322 50.1346 26.0936C53.0638 27.3551 55.5674 29.4913 57.3288 32.2321C59.0903 34.9729 60.0305 38.1952 60.0305 41.4916C60.0305 45.9119 58.3415 50.1511 55.3352 53.2767C52.3289 56.4023 48.2515 58.1582 44 58.1582Z" fill="white"/>
</g>
<g clip-path="url(#clip0_112_40)">
<path d="M62.9368 36.875L60.9834 30.0433C59.9668 26.485 56.6701 24 52.9701 24H51.3334V30.6667C51.3234 32.8467 48.0084 32.845 48.0001 30.6667V24H38.0001V30.6667C37.9901 32.8467 34.6768 32.845 34.6668 30.6667V24H33.0284C29.3284 24 26.0334 26.485 25.0151 30.0433L23.0651 36.875C22.7968 38.6517 23.5884 40.4383 24.6668 41.6967V57.3333C24.6668 61.01 27.6568 64 31.3334 64H41.3334C45.0101 64 48.0001 61.01 48.0001 57.3333V43.0733C48.6301 42.705 49.1901 42.2433 49.6668 41.6967C50.8901 43.0967 52.6651 44 54.6668 44H56.3334C56.9118 44 57.4634 43.9033 58.0001 43.7633V62.3333C58.0101 64.5133 61.3251 64.5117 61.3334 62.3333V41.6967C62.4134 40.44 63.2034 38.6533 62.9368 36.875ZM44.6668 52.3333H28.0001V43.7633C28.5368 43.9033 29.0884 44 29.6668 44H31.3334C33.3334 44 35.1101 43.0967 36.3334 41.6967C37.5568 43.0967 39.3334 44 41.3334 44H44.6668V52.3333Z" fill="#2D6F28"/>
</g>
<defs>
<filter id="filter0_d_112_40" x="0" y="0" width="88" height="108" filterUnits="userSpaceOnUse" color-interpolation-filters="sRGB">
<feFlood flood-opacity="0" result="BackgroundImageFix"/>
<feColorMatrix in="SourceAlpha" type="matrix" values="0 0 0 0 0 0 0 0 0 0 0 0 0 0 0 0 0 0 127 0" result="hardAlpha"/>
<feOffset dy="4"/>
<feGaussianBlur stdDeviation="2"/>
<feComposite in2="hardAlpha" operator="out"/>
<feColorMatrix type="matrix" values="0 0 0 0 0 0 0 0 0 0 0 0 0 0 0 0 0 0 0.25 0"/>
<feBlend mode="normal" in2="BackgroundImageFix" result="effect1_dropShadow_112_40"/>
<feBlend mode="normal" in="SourceGraphic" in2="effect1_dropShadow_112_40" result="shape"/>
</filter>
<clipPath id="clip0_112_40">
<rect width="40" height="40" fill="white" transform="translate(23 24)"/>
</clipPath>
</defs>
</svg>
