<svg width="88" height="108" viewBox="0 0 88 108" fill="none" xmlns="http://www.w3.org/2000/svg">
<g filter="url(#filter0_d_112_42)">
<circle cx="43" cy="41" r="25" fill="white"/>
<path d="M44 0C33.3956 0.0121295 23.2288 4.39697 15.73 12.1926C8.23122 19.9882 4.01273 30.558 4 41.5833C4 52.2916 11.9752 69.0499 27.705 91.3915C29.5776 94.0587 32.0295 96.2285 34.861 97.7244C37.6926 99.2203 40.8239 100 44 100C47.1761 100 50.3074 99.2203 53.139 97.7244C55.9705 96.2285 58.4224 94.0587 60.295 91.3915C76.0248 69.0499 84 52.2916 84 41.5833C83.9873 30.558 79.7688 19.9882 72.27 12.1926C64.7712 4.39697 54.6044 0.0121295 44 0ZM44 58.1582C40.8295 58.1582 37.7301 57.1808 35.094 55.3494C32.4578 53.518 30.4031 50.9151 29.1898 47.8696C27.9765 44.8242 27.659 41.4731 28.2776 38.2401C28.8961 35.0071 30.4229 32.0374 32.6648 29.7065C34.9067 27.3756 37.763 25.7883 40.8726 25.1452C43.9822 24.5021 47.2054 24.8322 50.1346 26.0936C53.0638 27.3551 55.5674 29.4913 57.3288 32.2321C59.0903 34.9729 60.0305 38.1952 60.0305 41.4916C60.0305 45.9119 58.3415 50.1511 55.3352 53.2767C52.3289 56.4023 48.2515 58.1582 44 58.1582Z" fill="white"/>
</g>
<g clip-path="url(#clip0_112_42)">
<path d="M69.9834 42.3333C69.9338 45.9801 69.0802 49.571 67.4834 52.85C67.33 52.8484 67.1769 52.8645 67.0272 52.8979C63.2401 54.0114 59.3076 54.5514 55.3605 54.5C51.1115 54.6189 46.871 54.0562 42.8001 52.8333C42.316 52.6692 41.8804 52.3872 41.5326 52.0127C41.1847 51.6381 40.9356 51.1829 40.8077 50.688C40.6797 50.1932 40.677 49.6743 40.7997 49.1781C40.9224 48.6819 41.1667 48.224 41.5105 47.8458C42.212 47.0653 42.9621 46.3298 43.7563 45.6438C44.1662 45.3139 44.6544 45.0958 45.1736 45.0107C45.6928 44.9257 46.2252 44.9765 46.7188 45.1583C49.3823 46.0469 52.1714 46.5013 54.9792 46.5042C60.2593 46.4498 65.4328 45.0117 69.9834 42.3333ZM51.7667 42.05C52.2389 42.1266 52.7225 42.0929 53.1795 41.9515C53.6365 41.8101 54.0546 41.5649 54.401 41.235C54.7474 40.9051 55.0128 40.4995 55.1764 40.05C55.34 39.6004 55.3973 39.1191 55.3438 38.6438C54.3793 30.7701 50.8172 23.4428 45.2209 17.8208C45.0081 17.5902 44.8513 17.3136 44.7626 17.0125C41.4669 17.0367 38.209 17.7173 35.1792 19.0146C38.3415 21.3739 40.9888 24.354 42.9591 27.7722C44.9293 31.1904 46.181 34.9749 46.6376 38.8938C46.7234 39.4968 46.9856 40.0609 47.3911 40.5154C47.7966 40.9698 48.3274 41.2942 48.9167 41.4479C49.8524 41.7112 50.8045 41.9123 51.7667 42.05ZM63.5876 40.7104C65.7048 39.9334 67.7218 38.9067 69.5959 37.6521C68.7366 32.8256 66.4792 28.3576 63.1039 24.8023C59.7286 21.247 55.3838 18.7608 50.6084 17.6521C55.4786 23.5067 58.5565 30.642 59.473 38.2021C59.5291 38.6624 59.6887 39.1039 59.9398 39.4937C60.1908 39.8835 60.527 40.2113 60.9228 40.4527C61.3187 40.694 61.7641 40.8426 62.2256 40.8872C62.6872 40.9319 63.1528 40.8714 63.5876 40.7104ZM55.0001 58.6667C49.8686 58.7518 44.7623 57.9331 39.9147 56.2479C39.5244 56.1053 39.1088 56.0453 38.6942 56.0717C38.2795 56.0981 37.8749 56.2103 37.5059 56.4013C37.1369 56.5922 36.8116 56.8577 36.5506 57.181C36.2896 57.5043 36.0986 57.8782 35.9897 58.2792C35.4316 60.4778 35.1799 62.7429 35.2417 65.0104C40.1992 67.1177 45.7052 67.5652 50.9379 66.2859C56.1705 65.0067 60.8491 62.0694 64.2751 57.9125C61.2189 58.4918 58.1097 58.7446 55.0001 58.6667ZM42.5001 39.5646C42.3678 38.3355 42.1429 37.1181 41.8272 35.9229C41.6907 35.4267 41.4311 34.973 41.0723 34.604C40.7136 34.2349 40.2675 33.9625 39.7753 33.8121C39.2831 33.6616 38.7609 33.6379 38.2572 33.7433C37.7534 33.8486 37.2845 34.0795 36.8938 34.4146C30.888 39.6869 26.6055 46.6426 24.6022 54.3792C24.5004 54.9592 24.4356 55.5451 24.4084 56.1333C26.1967 58.734 28.4583 60.975 31.0751 62.7396C31.2976 58.7923 32.3252 54.9322 34.0947 51.3968C35.8642 47.8613 38.3383 44.7252 41.3647 42.1813C41.7537 41.8714 42.0606 41.4707 42.2586 41.0145C42.4566 40.5583 42.5395 40.0604 42.5001 39.5646ZM36.1813 25.5604C34.6728 23.9007 32.9434 22.4559 31.0417 21.2667C26.4238 24.3516 22.9713 28.8934 21.2345 34.1684C19.4977 39.4434 19.5765 45.1479 21.4584 50.3729C24.1575 42.3103 29.1327 35.2013 35.7834 29.9042C36.1041 29.6517 36.37 29.3364 36.5649 28.9777C36.7597 28.619 36.8794 28.2244 36.9166 27.8179C36.9539 27.4114 36.9079 27.0016 36.7814 26.6134C36.655 26.2253 36.4508 25.867 36.1813 25.5604Z" fill="#2D6F28"/>
</g>
<defs>
<filter id="filter0_d_112_42" x="0" y="0" width="88" height="108" filterUnits="userSpaceOnUse" color-interpolation-filters="sRGB">
<feFlood flood-opacity="0" result="BackgroundImageFix"/>
<feColorMatrix in="SourceAlpha" type="matrix" values="0 0 0 0 0 0 0 0 0 0 0 0 0 0 0 0 0 0 127 0" result="hardAlpha"/>
<feOffset dy="4"/>
<feGaussianBlur stdDeviation="2"/>
<feComposite in2="hardAlpha" operator="out"/>
<feColorMatrix type="matrix" values="0 0 0 0 0 0 0 0 0 0 0 0 0 0 0 0 0 0 0.25 0"/>
<feBlend mode="normal" in2="BackgroundImageFix" result="effect1_dropShadow_112_42"/>
<feBlend mode="normal" in="SourceGraphic" in2="effect1_dropShadow_112_42" result="shape"/>
</filter>
<clipPath id="clip0_112_42">
<rect width="50" height="50" fill="white" transform="translate(20 17)"/>
</clipPath>
</defs>
</svg>
